<svg width="24" height="24" viewBox="0 0 24 24" fill="none" xmlns="http://www.w3.org/2000/svg">
<path d="M15.6698 13.8525C15.6923 12.3112 14.1041 11.2275 12.0548 11.0138C10.851 10.8919 10.1966 10.5487 10.1966 9.75375C10.1966 8.99437 10.9691 8.43 11.8298 8.47687C13.3935 8.565 13.6204 9.5325 13.6204 10.1231C13.6204 10.1231 15.3229 10.1419 15.3229 10.1231C15.3229 8.685 14.4941 7.41938 12.801 7.04625V5.34375H11.1135V6.98625C9.36414 7.26375 8.39477 8.67375 8.37789 9.87375C8.35352 11.4619 9.68102 12.345 11.8841 12.6637C13.2529 12.8512 13.8623 13.3744 13.8491 14.0681C13.8379 14.8181 13.3485 15.5362 11.9385 15.5362C10.5998 15.5362 10.0504 14.7094 10.0504 13.8375H8.21289C8.21289 15.4012 9.04914 16.5487 11.1041 16.815V18.4537H12.7916V16.8319C15.1766 16.53 15.6548 14.7375 15.6698 13.8525Z" fill="white"/>
<path d="M3.82641 12.0002C3.82645 10.2881 4.36418 8.6192 5.36369 7.2291C6.3632 5.839 7.77402 4.79789 9.39704 4.25271V2.45459C7.30306 3.02577 5.455 4.26964 4.13757 5.99456C2.82014 7.71948 2.10645 9.82974 2.10645 12.0002C2.10645 14.1707 2.82014 16.281 4.13757 18.0059C5.455 19.7308 7.30306 20.9747 9.39704 21.5458V19.7477C7.77402 19.2025 6.3632 18.1614 5.36369 16.7713C4.36418 15.3812 3.82645 13.7123 3.82641 12.0002Z" fill="white"/>
<path d="M14.5068 2.42624V4.21874C16.1525 4.75014 17.5873 5.7896 18.605 7.18773C19.6228 8.58586 20.1711 10.2707 20.1711 12C20.1711 13.7293 19.6228 15.4141 18.605 16.8122C17.5873 18.2104 16.1525 19.2498 14.5068 19.7812V21.5737C16.6227 21.0183 18.4949 19.7776 19.831 18.0455C21.1671 16.3134 21.8918 14.1875 21.8918 12C21.8918 9.81246 21.1671 7.68655 19.831 5.95446C18.4949 4.22236 16.6227 2.98167 14.5068 2.42624Z" fill="white"/>
</svg>
