<svg width="178" height="178" viewBox="0 0 178 178" fill="none" xmlns="http://www.w3.org/2000/svg">
<g clip-path="url(#clip0_1858_1679)">
<g filter="url(#filter0_bd_1858_1679)">
<path d="M131.942 134.752C133.45 134.392 134.717 133.727 135.706 132.737C143.747 124.696 130.376 98.2872 105.84 73.7515C81.3045 49.2158 54.8957 35.8443 46.8545 43.8855C45.8649 44.8751 45.1996 46.1429 44.8395 47.6511L16.0849 153.085C14.3568 159.421 20.1708 165.235 26.5071 163.507L131.942 134.752Z" fill="#AECAFF" fill-opacity="0.05" shape-rendering="crispEdges"/>
<path d="M131.942 134.752C133.45 134.392 134.717 133.727 135.706 132.737C143.747 124.696 130.376 98.2872 105.84 73.7515C81.3045 49.2158 54.8957 35.8443 46.8545 43.8855C45.8649 44.8751 45.1996 46.1429 44.8395 47.6511L16.0849 153.085C14.3568 159.421 20.1708 165.235 26.5071 163.507L131.942 134.752Z" fill="url(#paint0_radial_1858_1679)" shape-rendering="crispEdges"/>
<path d="M131.735 133.886L131.721 133.89L131.708 133.893L26.2729 162.648C20.601 164.195 15.3967 158.991 16.9435 153.319L45.6981 47.8853L45.7019 47.8716L45.7052 47.8578C46.0331 46.484 46.6278 45.3708 47.4838 44.5148C49.214 42.7847 52.0361 42.102 55.901 42.5923C59.7512 43.0807 64.4705 44.7181 69.7599 47.3962C80.3295 52.7479 92.991 62.1609 105.211 74.3808C117.431 86.6008 126.844 99.2622 132.195 109.832C134.874 115.121 136.511 119.841 136.999 123.691C137.49 127.556 136.807 130.378 135.077 132.108C134.221 132.964 133.108 133.558 131.735 133.886Z" stroke="url(#paint1_linear_1858_1679)" stroke-width="1.78" shape-rendering="crispEdges"/>
</g>
<g filter="url(#filter1_bd_1858_1679)">
<path d="M166.874 98.1229L152.835 84.6989L139.411 98.7382L153.45 112.162L166.874 98.1229Z" fill="url(#paint2_linear_1858_1679)" shape-rendering="crispEdges"/>
<path d="M165.616 98.1511L153.422 110.904L140.669 98.71L152.863 85.9572L165.616 98.1511Z" stroke="url(#paint3_radial_1858_1679)" stroke-opacity="0.4" stroke-width="1.78" shape-rendering="crispEdges"/>
</g>
<g filter="url(#filter2_bd_1858_1679)">
<path d="M41.08 26.8762L33.2628 13.489L19.8756 21.3062L27.6928 34.6934L41.08 26.8762Z" fill="url(#paint4_linear_1858_1679)" shape-rendering="crispEdges"/>
<path d="M39.8627 26.5564L28.0126 33.4761L21.0929 21.626L32.943 14.7063L39.8627 26.5564Z" stroke="url(#paint5_radial_1858_1679)" stroke-opacity="0.4" stroke-width="1.78" shape-rendering="crispEdges"/>
</g>
<g filter="url(#filter3_bd_1858_1679)">
<path d="M170.393 140.103L162.576 126.715L149.189 134.533L157.006 147.92L170.393 140.103Z" fill="url(#paint6_linear_1858_1679)" shape-rendering="crispEdges"/>
<path d="M169.176 139.783L157.326 146.702L150.406 134.852L162.256 127.933L169.176 139.783Z" stroke="url(#paint7_radial_1858_1679)" stroke-opacity="0.4" stroke-width="1.78" shape-rendering="crispEdges"/>
</g>
<g filter="url(#filter4_bd_1858_1679)">
<path d="M40.5436 123.337L30.8873 135.464L43.0151 145.121L52.6714 132.993L40.5436 123.337Z" fill="#2F86FC"/>
<path d="M40.5436 123.337L30.8873 135.464L43.0151 145.121L52.6714 132.993L40.5436 123.337Z" fill="url(#paint8_linear_1858_1679)"/>
<path d="M40.6855 124.587L51.4207 133.135L42.8732 143.87L32.1379 135.322L40.6855 124.587Z" stroke="url(#paint9_linear_1858_1679)" stroke-width="1.78"/>
</g>
<g filter="url(#filter5_bd_1858_1679)">
<path d="M105.077 98.7893L81.6475 107.79L90.6484 131.22L114.078 122.219L105.077 98.7893Z" fill="url(#paint10_radial_1858_1679)" fill-opacity="0.4" shape-rendering="crispEdges"/>
<path d="M104.565 99.9393L112.928 121.707L91.16 130.07L82.7974 108.302L104.565 99.9393Z" stroke="url(#paint11_linear_1858_1679)" stroke-width="1.78" shape-rendering="crispEdges"/>
</g>
<g filter="url(#filter6_bd_1858_1679)">
<path d="M44.8401 47.6511L16.0855 153.085C14.3574 159.421 20.1714 165.235 26.5077 163.507L131.942 134.752C121.196 137.319 98.2381 124.388 76.721 102.871C55.2048 81.355 42.2741 58.3984 44.8401 47.6511Z" fill="#AECAFF" fill-opacity="0.05" shape-rendering="crispEdges"/>
<path d="M44.8401 47.6511L16.0855 153.085C14.3574 159.421 20.1714 165.235 26.5077 163.507L131.942 134.752C121.196 137.319 98.2381 124.388 76.721 102.871C55.2048 81.355 42.2741 58.3984 44.8401 47.6511Z" fill="url(#paint12_radial_1858_1679)" shape-rendering="crispEdges"/>
<path d="M16.9441 153.319L43.9609 54.2572C44.1687 55.4661 44.471 56.7304 44.8601 58.0408C46.0729 62.1255 48.1541 66.7396 50.9776 71.6654C56.6254 81.5184 65.2893 92.698 76.0917 103.5C86.8946 114.303 98.0747 122.967 107.928 128.615C112.854 131.439 117.468 133.52 121.553 134.733C122.863 135.121 124.127 135.424 125.335 135.631L26.2735 162.648C20.6016 164.195 15.3973 158.991 16.9441 153.319Z" stroke="url(#paint13_linear_1858_1679)" stroke-width="1.78" shape-rendering="crispEdges"/>
</g>
<g filter="url(#filter7_bd_1858_1679)">
<path d="M118.688 35.8859C114.21 41.8076 115.381 50.2379 121.302 54.7156L111.64 67.4937C98.6611 57.6798 96.0954 39.2025 105.909 26.2237C115.723 13.2448 134.201 10.6791 147.179 20.4931L137.517 33.2713C131.596 28.7936 123.165 29.9642 118.688 35.8859Z" fill="url(#paint14_linear_1858_1679)" shape-rendering="crispEdges"/>
<path d="M118.333 35.6175C113.797 41.6164 114.871 50.1074 120.683 54.7965L111.555 66.8677C99.0797 57.1361 96.6882 39.1564 106.264 26.4921C115.84 13.8277 133.791 11.23 146.554 20.5823L137.426 32.6535C131.331 28.3392 122.869 29.6185 118.333 35.6175Z" stroke="url(#paint15_radial_1858_1679)" stroke-opacity="0.5" stroke-width="0.89" stroke-linecap="round" shape-rendering="crispEdges"/>
</g>
<g filter="url(#filter8_bd_1858_1679)">
<path d="M105.079 68.4051C103.518 70.4693 103.926 73.408 105.99 74.9689L96.3278 87.7471C87.2064 80.8499 85.4033 67.8643 92.3004 58.7428C99.1976 49.6214 112.183 47.8183 121.305 54.7154L111.642 67.4936C109.578 65.9328 106.639 66.3408 105.079 68.4051Z" fill="url(#paint16_linear_1858_1679)" shape-rendering="crispEdges"/>
<path d="M104.724 68.1367C103.105 70.2773 103.42 73.2769 105.378 75.0403L96.2442 87.1199C87.6254 80.3061 85.9961 67.818 92.6554 59.0112C99.3146 50.2045 111.774 48.3696 120.678 54.8058L111.544 66.8855C109.314 65.4819 106.342 65.996 104.724 68.1367Z" stroke="url(#paint17_radial_1858_1679)" stroke-opacity="0.5" stroke-width="0.89" stroke-linecap="round" shape-rendering="crispEdges"/>
</g>
<g filter="url(#filter9_bd_1858_1679)">
<path d="M73.7947 27.6241L56.008 39.0422L67.4261 56.8289L85.2128 45.4108L73.7947 27.6241Z" fill="url(#paint18_linear_1858_1679)" shape-rendering="crispEdges"/>
<path d="M73.5265 28.8539L83.983 45.1426L67.6943 55.5992L57.2377 39.3104L73.5265 28.8539Z" stroke="url(#paint19_radial_1858_1679)" stroke-opacity="0.4" stroke-width="1.78" shape-rendering="crispEdges"/>
</g>
<g filter="url(#filter10_bd_1858_1679)">
<path d="M94.2668 154.146C91.9352 152.737 91.1874 149.704 92.5966 147.373L78.886 139.087C72.9005 148.99 76.0769 161.871 85.9806 167.857C95.8843 173.842 108.765 170.666 114.751 160.762L101.04 152.476C99.6309 154.807 96.5984 155.555 94.2668 154.146Z" fill="url(#paint20_linear_1858_1679)" shape-rendering="crispEdges"/>
<path d="M94.0366 154.527C91.623 153.068 90.7661 150.014 92.0011 147.533L79.0407 139.7C73.4913 149.34 76.6447 161.694 86.2108 167.476C95.7769 173.257 108.181 170.305 114.135 160.91L101.175 153.077C99.553 155.324 96.4503 155.986 94.0366 154.527Z" stroke="url(#paint21_radial_1858_1679)" stroke-opacity="0.5" stroke-width="0.89" stroke-linecap="round" shape-rendering="crispEdges"/>
</g>
<g filter="url(#filter11_bd_1858_1679)">
<path d="M67.0158 142.013C62.9306 139.544 61.6203 134.231 64.0893 130.146L50.3788 121.86C43.3334 133.517 47.0722 148.679 58.7296 155.724C70.387 162.769 85.5485 159.03 92.5938 147.373L78.8833 139.087C76.4143 143.172 71.101 144.482 67.0158 142.013Z" fill="url(#paint22_linear_1858_1679)" shape-rendering="crispEdges"/>
<path d="M66.7856 142.394C62.6177 139.875 61.1968 134.541 63.4875 130.302L50.5329 122.473C43.924 133.867 47.64 148.502 58.9598 155.343C70.2796 162.184 84.9643 158.67 91.9794 147.522L79.0248 139.692C76.337 143.691 70.9535 144.913 66.7856 142.394Z" stroke="url(#paint23_linear_1858_1679)" stroke-width="0.89" stroke-linecap="round" shape-rendering="crispEdges"/>
</g>
</g>
<defs>
<filter id="filter0_bd_1858_1679" x="5.09637" y="30.8679" width="143.628" height="143.627" filterUnits="userSpaceOnUse" color-interpolation-filters="sRGB">
<feFlood flood-opacity="0" result="BackgroundImageFix"/>
<feGaussianBlur in="BackgroundImageFix" stdDeviation="2.225"/>
<feComposite in2="SourceAlpha" operator="in" result="effect1_backgroundBlur_1858_1679"/>
<feColorMatrix in="SourceAlpha" type="matrix" values="0 0 0 0 0 0 0 0 0 0 0 0 0 0 0 0 0 0 127 0" result="hardAlpha"/>
<feOffset/>
<feGaussianBlur stdDeviation="5.34"/>
<feComposite in2="hardAlpha" operator="out"/>
<feColorMatrix type="matrix" values="0 0 0 0 0.307292 0 0 0 0 0.527243 0 0 0 0 0.625 0 0 0 0.1 0"/>
<feBlend mode="normal" in2="effect1_backgroundBlur_1858_1679" result="effect2_dropShadow_1858_1679"/>
<feBlend mode="normal" in="SourceGraphic" in2="effect2_dropShadow_1858_1679" result="shape"/>
</filter>
<filter id="filter1_bd_1858_1679" x="128.731" y="74.0189" width="48.8234" height="48.8234" filterUnits="userSpaceOnUse" color-interpolation-filters="sRGB">
<feFlood flood-opacity="0" result="BackgroundImageFix"/>
<feGaussianBlur in="BackgroundImageFix" stdDeviation="2.225"/>
<feComposite in2="SourceAlpha" operator="in" result="effect1_backgroundBlur_1858_1679"/>
<feColorMatrix in="SourceAlpha" type="matrix" values="0 0 0 0 0 0 0 0 0 0 0 0 0 0 0 0 0 0 127 0" result="hardAlpha"/>
<feOffset/>
<feGaussianBlur stdDeviation="5.34"/>
<feComposite in2="hardAlpha" operator="out"/>
<feColorMatrix type="matrix" values="0 0 0 0 0.307292 0 0 0 0 0.527243 0 0 0 0 0.625 0 0 0 0.1 0"/>
<feBlend mode="normal" in2="effect1_backgroundBlur_1858_1679" result="effect2_dropShadow_1858_1679"/>
<feBlend mode="normal" in="SourceGraphic" in2="effect2_dropShadow_1858_1679" result="shape"/>
</filter>
<filter id="filter2_bd_1858_1679" x="9.19549" y="2.80889" width="42.5646" height="42.5645" filterUnits="userSpaceOnUse" color-interpolation-filters="sRGB">
<feFlood flood-opacity="0" result="BackgroundImageFix"/>
<feGaussianBlur in="BackgroundImageFix" stdDeviation="2.225"/>
<feComposite in2="SourceAlpha" operator="in" result="effect1_backgroundBlur_1858_1679"/>
<feColorMatrix in="SourceAlpha" type="matrix" values="0 0 0 0 0 0 0 0 0 0 0 0 0 0 0 0 0 0 127 0" result="hardAlpha"/>
<feOffset/>
<feGaussianBlur stdDeviation="5.34"/>
<feComposite in2="hardAlpha" operator="out"/>
<feColorMatrix type="matrix" values="0 0 0 0 0.307292 0 0 0 0 0.527243 0 0 0 0 0.625 0 0 0 0.1 0"/>
<feBlend mode="normal" in2="effect1_backgroundBlur_1858_1679" result="effect2_dropShadow_1858_1679"/>
<feBlend mode="normal" in="SourceGraphic" in2="effect2_dropShadow_1858_1679" result="shape"/>
</filter>
<filter id="filter3_bd_1858_1679" x="138.509" y="116.035" width="42.5646" height="42.5645" filterUnits="userSpaceOnUse" color-interpolation-filters="sRGB">
<feFlood flood-opacity="0" result="BackgroundImageFix"/>
<feGaussianBlur in="BackgroundImageFix" stdDeviation="2.225"/>
<feComposite in2="SourceAlpha" operator="in" result="effect1_backgroundBlur_1858_1679"/>
<feColorMatrix in="SourceAlpha" type="matrix" values="0 0 0 0 0 0 0 0 0 0 0 0 0 0 0 0 0 0 127 0" result="hardAlpha"/>
<feOffset/>
<feGaussianBlur stdDeviation="5.34"/>
<feComposite in2="hardAlpha" operator="out"/>
<feColorMatrix type="matrix" values="0 0 0 0 0.307292 0 0 0 0 0.527243 0 0 0 0 0.625 0 0 0 0.1 0"/>
<feBlend mode="normal" in2="effect1_backgroundBlur_1858_1679" result="effect2_dropShadow_1858_1679"/>
<feBlend mode="normal" in="SourceGraphic" in2="effect2_dropShadow_1858_1679" result="shape"/>
</filter>
<filter id="filter4_bd_1858_1679" x="20.2072" y="112.657" width="43.1442" height="43.1441" filterUnits="userSpaceOnUse" color-interpolation-filters="sRGB">
<feFlood flood-opacity="0" result="BackgroundImageFix"/>
<feGaussianBlur in="BackgroundImageFix" stdDeviation="2.225"/>
<feComposite in2="SourceAlpha" operator="in" result="effect1_backgroundBlur_1858_1679"/>
<feColorMatrix in="SourceAlpha" type="matrix" values="0 0 0 0 0 0 0 0 0 0 0 0 0 0 0 0 0 0 127 0" result="hardAlpha"/>
<feOffset/>
<feGaussianBlur stdDeviation="5.34"/>
<feComposite in2="hardAlpha" operator="out"/>
<feColorMatrix type="matrix" values="0 0 0 0 0.307292 0 0 0 0 0.527243 0 0 0 0 0.625 0 0 0 0.1 0"/>
<feBlend mode="normal" in2="effect1_backgroundBlur_1858_1679" result="effect2_dropShadow_1858_1679"/>
<feBlend mode="normal" in="SourceGraphic" in2="effect2_dropShadow_1858_1679" result="shape"/>
</filter>
<filter id="filter5_bd_1858_1679" x="70.9675" y="88.1093" width="53.7902" height="53.7902" filterUnits="userSpaceOnUse" color-interpolation-filters="sRGB">
<feFlood flood-opacity="0" result="BackgroundImageFix"/>
<feGaussianBlur in="BackgroundImageFix" stdDeviation="2.225"/>
<feComposite in2="SourceAlpha" operator="in" result="effect1_backgroundBlur_1858_1679"/>
<feColorMatrix in="SourceAlpha" type="matrix" values="0 0 0 0 0 0 0 0 0 0 0 0 0 0 0 0 0 0 127 0" result="hardAlpha"/>
<feOffset/>
<feGaussianBlur stdDeviation="5.34"/>
<feComposite in2="hardAlpha" operator="out"/>
<feColorMatrix type="matrix" values="0 0 0 0 0.307292 0 0 0 0 0.527243 0 0 0 0 0.625 0 0 0 0.1 0"/>
<feBlend mode="normal" in2="effect1_backgroundBlur_1858_1679" result="effect2_dropShadow_1858_1679"/>
<feBlend mode="normal" in="SourceGraphic" in2="effect2_dropShadow_1858_1679" result="shape"/>
</filter>
<filter id="filter6_bd_1858_1679" x="5.09686" y="36.9711" width="137.526" height="137.524" filterUnits="userSpaceOnUse" color-interpolation-filters="sRGB">
<feFlood flood-opacity="0" result="BackgroundImageFix"/>
<feGaussianBlur in="BackgroundImageFix" stdDeviation="2.225"/>
<feComposite in2="SourceAlpha" operator="in" result="effect1_backgroundBlur_1858_1679"/>
<feColorMatrix in="SourceAlpha" type="matrix" values="0 0 0 0 0 0 0 0 0 0 0 0 0 0 0 0 0 0 127 0" result="hardAlpha"/>
<feOffset/>
<feGaussianBlur stdDeviation="5.34"/>
<feComposite in2="hardAlpha" operator="out"/>
<feColorMatrix type="matrix" values="0 0 0 0 0.307292 0 0 0 0 0.527243 0 0 0 0 0.625 0 0 0 0.1 0"/>
<feBlend mode="normal" in2="effect1_backgroundBlur_1858_1679" result="effect2_dropShadow_1858_1679"/>
<feBlend mode="normal" in="SourceGraphic" in2="effect2_dropShadow_1858_1679" result="shape"/>
</filter>
<filter id="filter7_bd_1858_1679" x="82.1458" y="-3.27058" width="82.8339" height="88.5644" filterUnits="userSpaceOnUse" color-interpolation-filters="sRGB">
<feFlood flood-opacity="0" result="BackgroundImageFix"/>
<feGaussianBlur in="BackgroundImageFix" stdDeviation="2.67"/>
<feComposite in2="SourceAlpha" operator="in" result="effect1_backgroundBlur_1858_1679"/>
<feColorMatrix in="SourceAlpha" type="matrix" values="0 0 0 0 0 0 0 0 0 0 0 0 0 0 0 0 0 0 127 0" result="hardAlpha"/>
<feOffset/>
<feGaussianBlur stdDeviation="8.9"/>
<feComposite in2="hardAlpha" operator="out"/>
<feColorMatrix type="matrix" values="0 0 0 0 0.421562 0 0 0 0 0.622981 0 0 0 0 0.7125 0 0 0 0.1 0"/>
<feBlend mode="normal" in2="effect1_backgroundBlur_1858_1679" result="effect2_dropShadow_1858_1679"/>
<feBlend mode="normal" in="SourceGraphic" in2="effect2_dropShadow_1858_1679" result="shape"/>
</filter>
<filter id="filter8_bd_1858_1679" x="70.3094" y="32.7243" width="68.7953" height="72.8228" filterUnits="userSpaceOnUse" color-interpolation-filters="sRGB">
<feFlood flood-opacity="0" result="BackgroundImageFix"/>
<feGaussianBlur in="BackgroundImageFix" stdDeviation="0.89"/>
<feComposite in2="SourceAlpha" operator="in" result="effect1_backgroundBlur_1858_1679"/>
<feColorMatrix in="SourceAlpha" type="matrix" values="0 0 0 0 0 0 0 0 0 0 0 0 0 0 0 0 0 0 127 0" result="hardAlpha"/>
<feOffset/>
<feGaussianBlur stdDeviation="8.9"/>
<feComposite in2="hardAlpha" operator="out"/>
<feColorMatrix type="matrix" values="0 0 0 0 0.421562 0 0 0 0 0.622981 0 0 0 0 0.7125 0 0 0 0.1 0"/>
<feBlend mode="normal" in2="effect1_backgroundBlur_1858_1679" result="effect2_dropShadow_1858_1679"/>
<feBlend mode="normal" in="SourceGraphic" in2="effect2_dropShadow_1858_1679" result="shape"/>
</filter>
<filter id="filter9_bd_1858_1679" x="45.3278" y="16.9441" width="50.5651" height="50.5648" filterUnits="userSpaceOnUse" color-interpolation-filters="sRGB">
<feFlood flood-opacity="0" result="BackgroundImageFix"/>
<feGaussianBlur in="BackgroundImageFix" stdDeviation="2.225"/>
<feComposite in2="SourceAlpha" operator="in" result="effect1_backgroundBlur_1858_1679"/>
<feColorMatrix in="SourceAlpha" type="matrix" values="0 0 0 0 0 0 0 0 0 0 0 0 0 0 0 0 0 0 127 0" result="hardAlpha"/>
<feOffset/>
<feGaussianBlur stdDeviation="5.34"/>
<feComposite in2="hardAlpha" operator="out"/>
<feColorMatrix type="matrix" values="0 0 0 0 0.307292 0 0 0 0 0.527243 0 0 0 0 0.625 0 0 0 0.1 0"/>
<feBlend mode="normal" in2="effect1_backgroundBlur_1858_1679" result="effect2_dropShadow_1858_1679"/>
<feBlend mode="normal" in="SourceGraphic" in2="effect2_dropShadow_1858_1679" result="shape"/>
</filter>
<filter id="filter10_bd_1858_1679" x="58.0623" y="121.287" width="74.4882" height="67.3936" filterUnits="userSpaceOnUse" color-interpolation-filters="sRGB">
<feFlood flood-opacity="0" result="BackgroundImageFix"/>
<feGaussianBlur in="BackgroundImageFix" stdDeviation="0.89"/>
<feComposite in2="SourceAlpha" operator="in" result="effect1_backgroundBlur_1858_1679"/>
<feColorMatrix in="SourceAlpha" type="matrix" values="0 0 0 0 0 0 0 0 0 0 0 0 0 0 0 0 0 0 127 0" result="hardAlpha"/>
<feOffset/>
<feGaussianBlur stdDeviation="8.9"/>
<feComposite in2="hardAlpha" operator="out"/>
<feColorMatrix type="matrix" values="0 0 0 0 0.421562 0 0 0 0 0.622981 0 0 0 0 0.7125 0 0 0 0.1 0"/>
<feBlend mode="normal" in2="effect1_backgroundBlur_1858_1679" result="effect2_dropShadow_1858_1679"/>
<feBlend mode="normal" in="SourceGraphic" in2="effect2_dropShadow_1858_1679" result="shape"/>
</filter>
<filter id="filter11_bd_1858_1679" x="29.0198" y="104.06" width="81.3739" height="73.0233" filterUnits="userSpaceOnUse" color-interpolation-filters="sRGB">
<feFlood flood-opacity="0" result="BackgroundImageFix"/>
<feGaussianBlur in="BackgroundImageFix" stdDeviation="0.89"/>
<feComposite in2="SourceAlpha" operator="in" result="effect1_backgroundBlur_1858_1679"/>
<feColorMatrix in="SourceAlpha" type="matrix" values="0 0 0 0 0 0 0 0 0 0 0 0 0 0 0 0 0 0 127 0" result="hardAlpha"/>
<feOffset/>
<feGaussianBlur stdDeviation="8.9"/>
<feComposite in2="hardAlpha" operator="out"/>
<feColorMatrix type="matrix" values="0 0 0 0 0.421562 0 0 0 0 0.622981 0 0 0 0 0.7125 0 0 0 0.1 0"/>
<feBlend mode="normal" in2="effect1_backgroundBlur_1858_1679" result="effect2_dropShadow_1858_1679"/>
<feBlend mode="normal" in="SourceGraphic" in2="effect2_dropShadow_1858_1679" result="shape"/>
</filter>
<radialGradient id="paint0_radial_1858_1679" cx="0" cy="0" r="1" gradientUnits="userSpaceOnUse" gradientTransform="translate(13.2789 166.023) rotate(-39.3807) scale(189.733 222.543)">
<stop offset="0.16" stop-color="#6EC7FF" stop-opacity="0.05"/>
<stop offset="0.262772" stop-color="#449EFB" stop-opacity="0.53"/>
<stop offset="0.671683" stop-color="#1543EF"/>
<stop offset="1" stop-color="#1543EF"/>
</radialGradient>
<linearGradient id="paint1_linear_1858_1679" x1="58.3975" y1="18.9829" x2="143.413" y2="157.415" gradientUnits="userSpaceOnUse">
<stop stop-color="#FDFDFD" stop-opacity="0.1"/>
<stop offset="1" stop-color="#D9D9D9" stop-opacity="0.5"/>
</linearGradient>
<linearGradient id="paint2_linear_1858_1679" x1="152.857" y1="56.1109" x2="145.868" y2="135.083" gradientUnits="userSpaceOnUse">
<stop offset="0.0585218" stop-color="#43D8F9" stop-opacity="0"/>
<stop offset="0.343286" stop-color="#3DC5FF" stop-opacity="0.2"/>
<stop offset="0.71917" stop-color="#00FFD4"/>
</linearGradient>
<radialGradient id="paint3_radial_1858_1679" cx="0" cy="0" r="1" gradientUnits="userSpaceOnUse" gradientTransform="translate(168.893 99.8108) rotate(-176.522) scale(24.7228 24.7614)">
<stop stop-color="white"/>
<stop offset="1" stop-color="#AECAFF"/>
</radialGradient>
<linearGradient id="paint4_linear_1858_1679" x1="39.5692" y1="-8.438" x2="16.8335" y2="50.6093" gradientUnits="userSpaceOnUse">
<stop offset="0.0585218" stop-color="#43D8F9" stop-opacity="0"/>
<stop offset="0.343286" stop-color="#3DC5FF" stop-opacity="0.2"/>
<stop offset="0.71917" stop-color="#00FFD4"/>
</linearGradient>
<radialGradient id="paint5_radial_1858_1679" cx="0" cy="0" r="1" gradientUnits="userSpaceOnUse" gradientTransform="translate(42.2577 28.6152) rotate(-160.521) scale(19.7311 19.7618)">
<stop stop-color="white"/>
<stop offset="1" stop-color="#AECAFF"/>
</radialGradient>
<linearGradient id="paint6_linear_1858_1679" x1="168.883" y1="104.788" x2="146.147" y2="163.836" gradientUnits="userSpaceOnUse">
<stop offset="0.0585218" stop-color="#43D8F9" stop-opacity="0"/>
<stop offset="0.343286" stop-color="#3DC5FF" stop-opacity="0.2"/>
<stop offset="0.71917" stop-color="#00FFD4"/>
</linearGradient>
<radialGradient id="paint7_radial_1858_1679" cx="0" cy="0" r="1" gradientUnits="userSpaceOnUse" gradientTransform="translate(171.571 141.842) rotate(-160.521) scale(19.7311 19.7618)">
<stop stop-color="white"/>
<stop offset="1" stop-color="#AECAFF"/>
</radialGradient>
<linearGradient id="paint8_linear_1858_1679" x1="26.2347" y1="130.463" x2="49.285" y2="128.028" gradientUnits="userSpaceOnUse">
<stop stop-color="#1543EF"/>
<stop offset="1" stop-color="#1543EF" stop-opacity="0"/>
</linearGradient>
<linearGradient id="paint9_linear_1858_1679" x1="21.5126" y1="60.6364" x2="136.39" y2="74.6843" gradientUnits="userSpaceOnUse">
<stop stop-color="#FDFDFD" stop-opacity="0.1"/>
<stop offset="1" stop-color="#D9D9D9" stop-opacity="0.5"/>
</linearGradient>
<radialGradient id="paint10_radial_1858_1679" cx="0" cy="0" r="1" gradientUnits="userSpaceOnUse" gradientTransform="translate(108.163 97.3609) rotate(118.746) scale(31.9449 31.9947)">
<stop stop-color="white"/>
<stop offset="1" stop-color="#AECAFF"/>
</radialGradient>
<linearGradient id="paint11_linear_1858_1679" x1="129.973" y1="-4.33348" x2="278.768" y2="109.549" gradientUnits="userSpaceOnUse">
<stop stop-color="#FDFDFD" stop-opacity="0.1"/>
<stop offset="1" stop-color="#D9D9D9" stop-opacity="0.5"/>
</linearGradient>
<radialGradient id="paint12_radial_1858_1679" cx="0" cy="0" r="1" gradientUnits="userSpaceOnUse" gradientTransform="translate(80.1575 99.1455) rotate(131.826) scale(176.933 320.218)">
<stop stop-color="#6EC7FF" stop-opacity="0.05"/>
<stop offset="0.323377" stop-color="#52B9FF" stop-opacity="0.4"/>
<stop offset="0.425573" stop-color="#449EFB" stop-opacity="0.53"/>
<stop offset="0.671683" stop-color="#1543EF"/>
</radialGradient>
<linearGradient id="paint13_linear_1858_1679" x1="43.4964" y1="35.2303" x2="121.812" y2="191.845" gradientUnits="userSpaceOnUse">
<stop stop-color="#FDFDFD" stop-opacity="0.2"/>
<stop offset="1" stop-color="#C6CEDD" stop-opacity="0.5"/>
</linearGradient>
<linearGradient id="paint14_linear_1858_1679" x1="138.182" y1="82.8994" x2="76.2944" y2="13.8075" gradientUnits="userSpaceOnUse">
<stop offset="0.0585218" stop-color="#43D8F9" stop-opacity="0"/>
<stop offset="0.343286" stop-color="#3DC5FF" stop-opacity="0.2"/>
<stop offset="0.71917" stop-color="#00FFD4"/>
</linearGradient>
<radialGradient id="paint15_radial_1858_1679" cx="0" cy="0" r="1" gradientUnits="userSpaceOnUse" gradientTransform="translate(120.854 37.5241) rotate(-23.8433) scale(26.4355 18.3941)">
<stop stop-color="white"/>
<stop offset="1" stop-color="#B9C4C8" stop-opacity="0.51"/>
</radialGradient>
<linearGradient id="paint16_linear_1858_1679" x1="114.981" y1="98.574" x2="71.4873" y2="50.0169" gradientUnits="userSpaceOnUse">
<stop offset="0.0585218" stop-color="#43D8F9" stop-opacity="0"/>
<stop offset="0.343286" stop-color="#3DC5FF" stop-opacity="0.2"/>
<stop offset="0.71917" stop-color="#00FFD4"/>
</linearGradient>
<radialGradient id="paint17_radial_1858_1679" cx="0" cy="0" r="1" gradientUnits="userSpaceOnUse" gradientTransform="translate(103.753 67.4026) rotate(-21.6911) scale(18.9883 13.7917)">
<stop stop-color="white"/>
<stop offset="1" stop-color="#B9C4C8" stop-opacity="0.51"/>
</radialGradient>
<linearGradient id="paint18_linear_1858_1679" x1="53.1243" y1="26.3155" x2="93.947" y2="35.2317" gradientUnits="userSpaceOnUse">
<stop stop-color="#FDFDFD" stop-opacity="0.2"/>
<stop offset="1" stop-color="#C6CEDD" stop-opacity="0.5"/>
</linearGradient>
<radialGradient id="paint19_radial_1858_1679" cx="0" cy="0" r="1" gradientUnits="userSpaceOnUse" gradientTransform="translate(76.0959 25.9199) rotate(107.063) scale(26.9015 26.9435)">
<stop stop-color="white"/>
<stop offset="1" stop-color="#AECAFF"/>
</radialGradient>
<linearGradient id="paint20_linear_1858_1679" x1="92.3558" y1="121.914" x2="69.6928" y2="183.865" gradientUnits="userSpaceOnUse">
<stop offset="0.0585218" stop-color="#43D8F9" stop-opacity="0"/>
<stop offset="0.343286" stop-color="#3DC5FF" stop-opacity="0.2"/>
<stop offset="0.71917" stop-color="#00FFD4"/>
</linearGradient>
<radialGradient id="paint21_radial_1858_1679" cx="0" cy="0" r="1" gradientUnits="userSpaceOnUse" gradientTransform="translate(93.471 155.463) rotate(0.0167299) scale(19.1978 13.9226)">
<stop stop-color="white"/>
<stop offset="1" stop-color="#B9C4C8" stop-opacity="0.51"/>
</radialGradient>
<linearGradient id="paint22_linear_1858_1679" x1="66.2336" y1="101.646" x2="39.5578" y2="174.567" gradientUnits="userSpaceOnUse">
<stop offset="0.0585218" stop-color="#43D8F9" stop-opacity="0"/>
<stop offset="0.343286" stop-color="#3DC5FF" stop-opacity="0.2"/>
<stop offset="0.71917" stop-color="#00FFD4"/>
</linearGradient>
<linearGradient id="paint23_linear_1858_1679" x1="48.0527" y1="118.177" x2="33.4438" y2="151.764" gradientUnits="userSpaceOnUse">
<stop stop-color="#FDFDFD" stop-opacity="0.2"/>
<stop offset="1" stop-color="#C6CEDD" stop-opacity="0.5"/>
</linearGradient>
<clipPath id="clip0_1858_1679">
<rect width="178" height="178" fill="white"/>
</clipPath>
</defs>
</svg>
