<?xml version="1.0" standalone="no"?>
<!DOCTYPE svg PUBLIC "-//W3C//DTD SVG 20010904//EN"
 "http://www.w3.org/TR/2001/REC-SVG-20010904/DTD/svg10.dtd">
<svg version="1.0" xmlns="http://www.w3.org/2000/svg"
 width="900.000000pt" height="900.000000pt" viewBox="0 0 900.000000 900.000000"
 preserveAspectRatio="xMidYMid meet">

<g transform="translate(0.000000,900.000000) scale(0.100000,-0.100000)"
fill="#FFFFFF" stroke="none">
<path d="M0 4500 l0 -4500 4500 0 4500 0 0 4500 0 4500 -4500 0 -4500 0 0
-4500z m4965 2868 c15 -12 39 -47 52 -77 13 -31 42 -94 63 -141 37 -83 282
-633 441 -993 44 -98 88 -197 98 -220 19 -42 123 -276 273 -614 l81 -183 624
0 c660 0 670 -1 687 -45 3 -9 6 -172 6 -361 l0 -345 -25 -24 -24 -25 -456 0
c-250 0 -455 -2 -455 -3 0 -2 6 -17 14 -33 14 -28 60 -131 136 -304 85 -194
211 -477 225 -505 16 -34 170 -380 220 -495 18 -41 56 -127 85 -190 28 -63 64
-144 80 -180 15 -36 66 -152 114 -258 47 -106 86 -204 86 -218 0 -14 -11 -36
-25 -49 l-24 -25 -381 0 c-322 0 -386 2 -411 15 -30 16 -80 110 -149 280 -16
39 -42 98 -59 133 -17 34 -31 64 -31 67 0 2 -30 71 -67 152 -36 82 -83 186
-103 233 -21 47 -122 274 -225 505 -232 521 -199 447 -380 855 -84 190 -164
370 -178 400 -13 30 -86 195 -162 365 -76 171 -157 353 -180 405 -50 109 -260
583 -384 863 -11 27 -25 45 -31 42 -5 -3 -10 -10 -10 -15 0 -5 -13 -37 -29
-72 -35 -77 -180 -401 -231 -518 -54 -124 -199 -449 -220 -495 -10 -22 -37
-80 -58 -130 -22 -49 -79 -178 -127 -285 -48 -107 -111 -249 -140 -315 -29
-66 -191 -430 -360 -810 -169 -379 -323 -724 -340 -765 -70 -161 -335 -753
-367 -817 -20 -42 -43 -73 -58 -80 -18 -9 -122 -13 -398 -13 -381 0 -400 2
-429 39 -26 33 -34 10 169 466 44 99 115 259 158 355 96 214 230 516 280 630
48 110 184 416 267 600 36 80 67 151 70 158 4 9 -90 12 -451 12 l-457 0 -24
25 -25 24 0 345 c0 189 3 352 6 361 17 44 27 45 689 45 l625 0 11 28 c6 15 46
106 89 202 80 178 212 476 280 630 65 148 201 453 220 495 10 22 38 83 60 135
76 172 116 263 198 446 44 99 88 200 98 222 9 23 30 53 46 67 l30 25 432 0
c430 0 434 0 461 -22z"/>
</g>
</svg>
