<svg width="265" height="34" viewBox="0 0 265 34" fill="none" xmlns="http://www.w3.org/2000/svg">
<path d="M221.93 17.2595C220.044 15.9737 217.987 15.1165 215.929 14.0021C214.644 13.3163 213.272 12.6306 212.158 11.6877C210.272 10.1447 210.615 7.05876 212.672 5.68724C215.501 3.8014 220.215 4.83004 220.73 8.68745C220.73 8.77317 220.815 8.85889 220.901 8.85889H225.187C225.273 8.85889 225.359 8.77317 225.359 8.68745C225.101 6.03012 224.073 3.80139 222.187 2.34414C220.387 0.972622 218.329 0.286865 216.101 0.286865C204.786 0.286865 203.757 12.2877 209.843 16.0594C210.529 16.488 216.529 19.4882 218.672 20.8597C220.815 22.1455 221.415 24.5457 220.558 26.4315C219.701 28.1459 217.558 29.346 215.415 29.1746C213.015 29.0031 211.215 27.7173 210.529 25.7458C210.443 25.4029 210.358 24.7171 210.358 24.3742C210.358 24.2885 210.272 24.2028 210.186 24.2028H205.557C205.471 24.2028 205.386 24.2885 205.386 24.3742C205.386 27.7173 206.243 29.6032 208.472 31.3176C210.615 32.9463 212.929 33.632 215.415 33.632C221.758 33.632 225.016 30.0318 225.701 26.3458C226.216 22.7456 225.187 19.4882 221.93 17.2595Z" fill="white"/>
<path d="M19.8871 0.972656H17.8298H15.6011C15.5154 0.972656 15.4296 1.05837 15.4296 1.05837L11.5722 13.6592C11.4865 13.8307 11.3151 13.8307 11.2294 13.6592L7.37194 1.05837C7.37194 0.972648 7.28622 0.972656 7.2005 0.972656H4.97177H2.91449H0.171451C0.0857307 0.972656 0 1.05837 0 1.14409V33.2892C0 33.3749 0.0857307 33.4606 0.171451 33.4606H4.80034C4.88606 33.4606 4.97177 33.3749 4.97177 33.2892V8.85891C4.97177 8.68747 5.22894 8.60175 5.31466 8.77319L9.17207 21.4598L9.42922 22.317C9.42922 22.4027 9.51495 22.4027 9.60067 22.4027H13.2009C13.2866 22.4027 13.3724 22.317 13.3724 22.317L13.6295 21.4598L17.4869 8.77319C17.5726 8.60175 17.8298 8.60175 17.8298 8.85891V33.2892C17.8298 33.3749 17.9155 33.4606 18.0012 33.4606H22.6301C22.7159 33.4606 22.8016 33.3749 22.8016 33.2892V1.14409C22.8016 1.05837 22.7159 0.972656 22.6301 0.972656H19.8871Z" fill="white"/>
<path d="M150.696 0.972656C150.61 0.972656 150.525 1.05837 150.525 1.05837L146.667 13.6592C146.582 13.8307 146.41 13.8307 146.324 13.6592L142.467 1.05837C142.467 0.972648 142.381 0.972656 142.295 0.972656H135.181C135.095 0.972656 135.009 1.05837 135.009 1.14409V33.2892C135.009 33.3749 135.095 33.4606 135.181 33.4606H139.81C139.895 33.4606 139.981 33.3749 139.981 33.2892V8.85891C139.981 8.68747 140.238 8.60175 140.324 8.77319L144.181 21.4598L144.438 22.317C144.438 22.4027 144.524 22.4027 144.61 22.4027H148.21C148.296 22.4027 148.382 22.317 148.382 22.317L148.639 21.4598L152.496 8.77319C152.582 8.60175 152.839 8.60175 152.839 8.85891V33.2892C152.839 33.3749 152.925 33.4606 153.011 33.4606H157.639C157.725 33.4606 157.811 33.3749 157.811 33.2892V1.14409C157.811 1.05837 157.725 0.972656 157.639 0.972656H150.696Z" fill="white"/>
<path d="M90.6918 0.972656H82.034H77.4052H68.6617C68.576 0.972656 68.4902 1.05837 68.4902 1.14409V5.17294C68.4902 5.25866 68.576 5.34438 68.6617 5.34438H77.148V33.2892C77.148 33.3749 77.2337 33.4606 77.3194 33.4606H81.9483C82.034 33.4606 82.1198 33.3749 82.1198 33.2892V5.34438H90.6061C90.6918 5.34438 90.7775 5.25866 90.7775 5.17294V1.14409C90.8632 1.05837 90.7775 0.972656 90.6918 0.972656Z" fill="white"/>
<path d="M118.122 33.4605H122.323C122.408 33.4605 122.494 33.3748 122.494 33.2034L113.751 0.972566C113.751 0.886846 113.665 0.886841 113.579 0.886841H111.95H109.122H107.493C107.407 0.886841 107.322 0.972566 107.322 0.972566L98.5781 33.2034C98.5781 33.2891 98.6639 33.4605 98.7496 33.4605H102.95C103.036 33.4605 103.121 33.3748 103.121 33.3748L105.693 23.9456C105.693 23.8599 105.779 23.8599 105.864 23.8599H115.208C115.294 23.8599 115.379 23.9456 115.379 23.9456L117.951 33.3748C117.951 33.3748 118.037 33.4605 118.122 33.4605ZM106.979 19.231L110.408 6.63009C110.493 6.45865 110.665 6.45865 110.75 6.63009L114.179 19.231C114.179 19.3167 114.093 19.4881 114.008 19.4881H107.236C107.064 19.4881 106.979 19.3167 106.979 19.231Z" fill="white"/>
<path d="M190.299 33.4605H194.499C194.585 33.4605 194.671 33.3748 194.671 33.2034L185.927 0.972566C185.927 0.886846 185.842 0.886841 185.756 0.886841H184.127H181.298H179.67C179.584 0.886841 179.498 0.972566 179.498 0.972566L170.755 33.2034C170.755 33.2891 170.841 33.4605 170.926 33.4605H175.127C175.212 33.4605 175.298 33.3748 175.298 33.3748L177.87 23.9456C177.87 23.8599 177.955 23.8599 178.041 23.8599H187.385C187.47 23.8599 187.556 23.9456 187.556 23.9456L190.128 33.3748C190.128 33.3748 190.213 33.4605 190.299 33.4605ZM179.155 19.231L182.584 6.63009C182.67 6.45865 182.841 6.45865 182.927 6.63009L186.356 19.231C186.356 19.3167 186.27 19.4881 186.185 19.4881H179.413C179.241 19.4881 179.155 19.3167 179.155 19.231Z" fill="white"/>
<path d="M41.66 28.6603V18.7167C41.66 18.631 41.7457 18.5453 41.8314 18.5453H54.2609C54.3466 18.5453 54.4323 18.4596 54.4323 18.3738V14.345C54.4323 14.2593 54.3466 14.1736 54.2609 14.1736H41.8314C41.7457 14.1736 41.66 14.0878 41.66 14.0021V5.51582C41.66 5.4301 41.7457 5.34438 41.8314 5.34438H55.8896C55.9753 5.34438 56.061 5.25866 56.061 5.17294V1.14409C56.061 1.05837 55.9753 0.972656 55.8896 0.972656H41.66H36.8597C36.774 0.972656 36.6882 1.05837 36.6882 1.14409V5.34438V14.2593V18.631V28.9174V33.2892C36.6882 33.3749 36.774 33.4606 36.8597 33.4606H41.66H56.4896C56.5753 33.4606 56.661 33.3749 56.661 33.2892V29.0889C56.661 29.0032 56.5753 28.9174 56.4896 28.9174H41.7457C41.7457 28.8317 41.66 28.746 41.66 28.6603Z" fill="white"/>
<path d="M264.447 33.1176L248.331 16.4879C248.246 16.4022 248.246 16.3165 248.331 16.2308L262.818 1.144C262.904 1.05828 262.818 0.886841 262.732 0.886841H256.818C256.732 0.886841 256.732 0.886846 256.732 0.972566L244.388 13.8306C244.302 13.9163 244.131 13.8306 244.131 13.7449V1.22972C244.131 1.144 244.045 1.05828 243.96 1.05828H239.245C239.159 1.05828 239.073 1.144 239.073 1.22972V33.3748C239.073 33.4605 239.159 33.5462 239.245 33.5462H243.874C243.96 33.5462 244.045 33.4605 244.045 33.3748V19.231C244.045 19.0595 244.217 18.9738 244.302 19.1452L258.189 33.5462L258.275 33.632H264.19C264.447 33.4605 264.532 33.2034 264.447 33.1176Z" fill="white"/>
</svg>
