<svg width="110" height="27" viewBox="0 0 110 27" fill="none" xmlns="http://www.w3.org/2000/svg">
<path d="M18.5324 4.3927L10.9492 10.0338L12.3595 6.70464L18.5324 4.3927Z" fill="#E17726"/>
<path d="M1.00781 4.3927L8.54474 10.0801L7.20381 6.70464L1.00781 4.3927Z" fill="#E27625"/>
<path d="M15.8045 17.4552L13.77 20.5532L18.1165 21.7554L19.3418 17.5246L15.8045 17.4552Z" fill="#E27625"/>
<path d="M0.22168 17.5246L1.44701 21.7554L5.77034 20.5532L3.75895 17.4552L0.22168 17.5246Z" fill="#E27625"/>
<path d="M5.53912 12.2302L4.33691 14.0566L8.614 14.2416L8.47529 9.61768L5.53912 12.2302Z" fill="#E27625"/>
<path d="M14.0241 12.2301L11.0417 9.57141L10.9492 14.2415L15.2263 14.0566L14.0241 12.2301Z" fill="#E27625"/>
<path d="M5.77051 20.5531L8.35988 19.3047L6.1173 17.5476L5.77051 20.5531Z" fill="#E27625"/>
<path d="M11.2036 19.3047L13.7699 20.5531L13.4231 17.5476L11.2036 19.3047Z" fill="#E27625"/>
<path d="M13.7699 20.5531L11.2036 19.3047L11.4117 20.9693L11.3886 21.686L13.7699 20.5531Z" fill="#D5BFB2"/>
<path d="M5.77051 20.5531L8.17493 21.686L8.15181 20.9693L8.35988 19.3047L5.77051 20.5531Z" fill="#D5BFB2"/>
<path d="M8.22139 16.4379L6.07129 15.8137L7.57405 15.1201L8.22139 16.4379Z" fill="#233447"/>
<path d="M11.3423 16.4379L11.9665 15.1201L13.4924 15.8137L11.3423 16.4379Z" fill="#233447"/>
<path d="M5.77067 20.5532L6.14058 17.4552L3.75928 17.5246L5.77067 20.5532Z" fill="#CC6228"/>
<path d="M13.4233 17.4552L13.7701 20.5532L15.8046 17.5246L13.4233 17.4552Z" fill="#CC6228"/>
<path d="M15.2263 14.0566L10.9492 14.2416L11.3422 16.4379L11.9665 15.1201L13.4924 15.8137L15.2263 14.0566Z" fill="#CC6228"/>
<path d="M6.07087 15.8137L7.57363 15.1201L8.22097 16.4379L8.614 14.2416L4.33691 14.0566L6.07087 15.8137Z" fill="#CC6228"/>
<path d="M4.33691 14.0566L6.11711 17.5477L6.07087 15.8137L4.33691 14.0566Z" fill="#E27525"/>
<path d="M13.4927 15.8137L13.4233 17.5477L15.2267 14.0566L13.4927 15.8137Z" fill="#E27525"/>
<path d="M8.61422 14.2416L8.22119 16.4379L8.7067 19.0504L8.8223 15.6056L8.61422 14.2416Z" fill="#E27525"/>
<path d="M10.9493 14.2416L10.7412 15.6056L10.8337 19.0504L11.3423 16.4379L10.9493 14.2416Z" fill="#E27525"/>
<path d="M11.3421 16.4379L10.8335 19.0504L11.2034 19.3047L13.4229 17.5477L13.4922 15.8137L11.3421 16.4379Z" fill="#F5841F"/>
<path d="M6.07129 15.8137L6.11753 17.5477L8.36011 19.3047L8.7069 19.0504L8.22139 16.4379L6.07129 15.8137Z" fill="#F5841F"/>
<path d="M11.3885 21.6861L11.4116 20.9694L11.2036 20.8075H8.33676L8.15181 20.9694L8.17493 21.6861L5.77051 20.5532L6.60281 21.2468L8.31364 22.4259H11.2267L12.9375 21.2468L13.7698 20.5532L11.3885 21.6861Z" fill="#C0AC9D"/>
<path d="M11.2036 19.3047L10.8337 19.0504H8.70672L8.35993 19.3047L8.15186 20.9693L8.33681 20.8075H11.2036L11.4117 20.9693L11.2036 19.3047Z" fill="#161616"/>
<path d="M18.8561 10.4037L19.5035 7.28263L18.5325 4.3927L11.2036 9.84888L14.0242 12.2302L18.0007 13.3862L18.8793 12.3689L18.5093 12.0915L19.1105 11.5366L18.6481 11.1667L19.2492 10.7043L18.8561 10.4037Z" fill="#763E1A"/>
<path d="M0.0600586 7.28263L0.707401 10.4037L0.291253 10.7043L0.892357 11.1667L0.429969 11.5366L1.05419 12.0915L0.661163 12.3689L1.5397 13.3862L5.53936 12.2302L8.35993 9.84888L1.00795 4.3927L0.0600586 7.28263Z" fill="#763E1A"/>
<path d="M18.001 13.3862L14.0244 12.2302L15.2267 14.0567L13.4233 17.5477L15.8046 17.5246H19.3419L18.001 13.3862Z" fill="#F5841F"/>
<path d="M5.53914 12.2302L1.53949 13.3862L0.22168 17.5246H3.75895L6.11713 17.5477L4.33694 14.0567L5.53914 12.2302Z" fill="#F5841F"/>
<path d="M10.9494 14.2415L11.2038 9.84883L12.3597 6.70459H7.2041L8.36007 9.84883L8.61439 14.2415L8.70686 15.6287V19.0504H10.8338V15.6287L10.9494 14.2415Z" fill="#F5841F"/>
<path d="M97.3 13.4984C96.7398 13.1164 96.1286 12.8618 95.5175 12.5307C95.1355 12.327 94.728 12.1233 94.397 11.8432C93.8368 11.3848 93.9386 10.468 94.5498 10.0606C95.3901 9.50037 96.7907 9.80595 96.9435 10.9519C96.9435 10.9773 96.969 11.0028 96.9944 11.0028H98.2677C98.2932 11.0028 98.3186 10.9773 98.3186 10.9519C98.2422 10.1625 97.9366 9.50037 97.3764 9.06746C96.8416 8.66002 96.2305 8.4563 95.5684 8.4563C92.207 8.4563 91.9014 12.0214 93.7094 13.1419C93.9132 13.2692 95.6957 14.1605 96.3323 14.5679C96.969 14.9499 97.1472 15.6629 96.8926 16.2232C96.6379 16.7325 96.0013 17.089 95.3647 17.038C94.6517 16.9871 94.1169 16.6051 93.9132 16.0194C93.8877 15.9176 93.8622 15.7139 93.8622 15.612C93.8622 15.5865 93.8368 15.5611 93.8113 15.5611H92.4362C92.4107 15.5611 92.3853 15.5865 92.3853 15.612C92.3853 16.6051 92.6399 17.1654 93.302 17.6747C93.9386 18.1585 94.6262 18.3622 95.3647 18.3622C97.2491 18.3622 98.2168 17.2927 98.4205 16.1977C98.5733 15.1282 98.2677 14.1605 97.3 13.4984Z" fill="white"/>
<path d="M37.2785 8.66003H36.6673H36.0053C35.9798 8.66003 35.9543 8.6855 35.9543 8.6855L34.8084 12.4289C34.7829 12.4798 34.732 12.4798 34.7065 12.4289L33.5606 8.6855C33.5606 8.66003 33.5351 8.66003 33.5097 8.66003H32.8476H32.2364H31.4215C31.3961 8.66003 31.3706 8.6855 31.3706 8.71096V18.2604C31.3706 18.2858 31.3961 18.3113 31.4215 18.3113H32.7967C32.8221 18.3113 32.8476 18.2858 32.8476 18.2604V11.0028C32.8476 10.9519 32.924 10.9264 32.9494 10.9774L34.0954 14.7462L34.1718 15.0008C34.1718 15.0263 34.1972 15.0263 34.2227 15.0263H35.2922C35.3177 15.0263 35.3432 15.0008 35.3432 15.0008L35.4196 14.7462L36.5655 10.9774C36.591 10.9264 36.6673 10.9264 36.6673 11.0028V18.2604C36.6673 18.2858 36.6928 18.3113 36.7183 18.3113H38.0934C38.1189 18.3113 38.1443 18.2858 38.1443 18.2604V8.71096C38.1443 8.6855 38.1189 8.66003 38.0934 8.66003H37.2785Z" fill="white"/>
<path d="M76.1381 8.66003C76.1127 8.66003 76.0872 8.6855 76.0872 8.6855L74.9413 12.4289C74.9158 12.4798 74.8649 12.4798 74.8394 12.4289L73.6935 8.6855C73.6935 8.66003 73.668 8.66003 73.6426 8.66003H71.529C71.5035 8.66003 71.478 8.6855 71.478 8.71096V18.2604C71.478 18.2858 71.5035 18.3113 71.529 18.3113H72.9041C72.9295 18.3113 72.955 18.2858 72.955 18.2604V11.0028C72.955 10.9519 73.0314 10.9264 73.0569 10.9774L74.2028 14.7462L74.2792 15.0008C74.2792 15.0263 74.3047 15.0263 74.3301 15.0263H75.3997C75.4251 15.0263 75.4506 15.0008 75.4506 15.0008L75.527 14.7462L76.6729 10.9774C76.6984 10.9264 76.7748 10.9264 76.7748 11.0028V18.2604C76.7748 18.2858 76.8002 18.3113 76.8257 18.3113H78.2008C78.2263 18.3113 78.2517 18.2858 78.2517 18.2604V8.71096C78.2517 8.6855 78.2263 8.66003 78.2008 8.66003H76.1381Z" fill="white"/>
<path d="M58.3128 8.66003H55.7408H54.3657H51.7682C51.7428 8.66003 51.7173 8.6855 51.7173 8.71096V9.90782C51.7173 9.93329 51.7428 9.95875 51.7682 9.95875H54.2893V18.2604C54.2893 18.2858 54.3147 18.3113 54.3402 18.3113H55.7153C55.7408 18.3113 55.7662 18.2858 55.7662 18.2604V9.95875H58.2873C58.3128 9.95875 58.3382 9.93329 58.3382 9.90782V8.71096C58.3637 8.6855 58.3382 8.66003 58.3128 8.66003Z" fill="white"/>
<path d="M66.4613 18.3113H67.7091C67.7346 18.3113 67.76 18.2858 67.76 18.2349L65.1626 8.65999C65.1626 8.63452 65.1371 8.63452 65.1117 8.63452H64.6278H63.7875H63.3036C63.2782 8.63452 63.2527 8.65999 63.2527 8.65999L60.6553 18.2349C60.6553 18.2603 60.6807 18.3113 60.7062 18.3113H61.954C61.9795 18.3113 62.0049 18.2858 62.0049 18.2858L62.7689 15.4846C62.7689 15.4592 62.7943 15.4592 62.8198 15.4592H65.5955C65.621 15.4592 65.6464 15.4846 65.6464 15.4846L66.4104 18.2858C66.4104 18.2858 66.4359 18.3113 66.4613 18.3113ZM63.1509 14.0841L64.1695 10.3407C64.1949 10.2898 64.2459 10.2898 64.2713 10.3407L65.2899 14.0841C65.2899 14.1095 65.2645 14.1604 65.239 14.1604H63.2273C63.1763 14.1604 63.1509 14.1095 63.1509 14.0841Z" fill="white"/>
<path d="M87.9032 18.3113H89.151C89.1765 18.3113 89.2019 18.2858 89.2019 18.2349L86.6045 8.65999C86.6045 8.63452 86.579 8.63452 86.5536 8.63452H86.0697H85.2294H84.7455C84.7201 8.63452 84.6946 8.65999 84.6946 8.65999L82.0972 18.2349C82.0972 18.2603 82.1226 18.3113 82.1481 18.3113H83.3959C83.4214 18.3113 83.4468 18.2858 83.4468 18.2858L84.2108 15.4846C84.2108 15.4592 84.2362 15.4592 84.2617 15.4592H87.0374C87.0629 15.4592 87.0883 15.4846 87.0883 15.4846L87.8523 18.2858C87.8523 18.2858 87.8777 18.3113 87.9032 18.3113ZM84.5927 14.0841L85.6113 10.3407C85.6368 10.2898 85.6877 10.2898 85.7132 10.3407L86.7318 14.0841C86.7318 14.1095 86.7064 14.1604 86.6809 14.1604H84.6691C84.6182 14.1604 84.5927 14.1095 84.5927 14.0841Z" fill="white"/>
<path d="M43.7465 16.8853V13.9313C43.7465 13.9058 43.772 13.8804 43.7974 13.8804H47.4899C47.5153 13.8804 47.5408 13.8549 47.5408 13.8294V12.6326C47.5408 12.6071 47.5153 12.5817 47.4899 12.5817H43.7974C43.772 12.5817 43.7465 12.5562 43.7465 12.5307V10.0097C43.7465 9.98422 43.772 9.95875 43.7974 9.95875H47.9737C47.9992 9.95875 48.0246 9.93329 48.0246 9.90782V8.71096C48.0246 8.6855 47.9992 8.66003 47.9737 8.66003H43.7465H42.3205C42.295 8.66003 42.2695 8.6855 42.2695 8.71096V9.95875V12.6071V13.9058V16.9617V18.2604C42.2695 18.2858 42.295 18.3113 42.3205 18.3113H43.7465H48.152C48.1774 18.3113 48.2029 18.2858 48.2029 18.2604V17.0126C48.2029 16.9871 48.1774 16.9617 48.152 16.9617H43.772C43.772 16.9362 43.7465 16.9107 43.7465 16.8853Z" fill="white"/>
<path d="M109.93 18.2094L105.143 13.2692C105.117 13.2437 105.117 13.2182 105.143 13.1928L109.446 8.71092C109.472 8.68545 109.446 8.63452 109.421 8.63452H107.664C107.638 8.63452 107.638 8.63452 107.638 8.65999L103.971 12.4798C103.946 12.5052 103.895 12.4798 103.895 12.4543V8.73638C103.895 8.71092 103.87 8.68545 103.844 8.68545H102.444C102.418 8.68545 102.393 8.71092 102.393 8.73638V18.2858C102.393 18.3113 102.418 18.3367 102.444 18.3367H103.819C103.844 18.3367 103.87 18.3113 103.87 18.2858V14.0841C103.87 14.0331 103.92 14.0077 103.946 14.0586L108.071 18.3367L108.097 18.3622H109.854C109.93 18.3113 109.956 18.2349 109.93 18.2094Z" fill="white"/>
</svg>
