<svg width="18" height="18" viewBox="0 0 18 18" fill="none" xmlns="http://www.w3.org/2000/svg">
<path d="M9.25 0.25C11.5706 0.25 13.7962 1.17187 15.4372 2.81282C17.0781 4.45376 18 6.67936 18 9C18 11.3206 17.0781 13.5462 15.4372 15.1872C13.7962 16.8281 11.5706 17.75 9.25 17.75C6.92936 17.75 4.70376 16.8281 3.06282 15.1872C1.42187 13.5462 0.5 11.3206 0.5 9C0.5 6.67936 1.42187 4.45376 3.06282 2.81282C4.70376 1.17187 6.92936 0.25 9.25 0.25ZM9.25 6.8125C9.37311 6.8125 9.49502 6.78825 9.60877 6.74114C9.72251 6.69402 9.82586 6.62497 9.91291 6.53791C9.99997 6.45086 10.069 6.34751 10.1161 6.23377C10.1632 6.12002 10.1875 5.99811 10.1875 5.875C10.1875 5.75189 10.1632 5.62998 10.1161 5.51623C10.069 5.40249 9.99997 5.29914 9.91291 5.21209C9.82586 5.12503 9.72251 5.05598 9.60877 5.00886C9.49502 4.96175 9.37311 4.9375 9.25 4.9375C9.00169 4.9375 8.76355 5.03614 8.58797 5.21172C8.41239 5.3873 8.31375 5.62544 8.31375 5.87375C8.31375 6.12206 8.41239 6.3602 8.58797 6.53578C8.76355 6.71136 9.00169 6.81 9.25 6.81M9.875 8.3725C9.875 8.20674 9.80915 8.04777 9.69194 7.93056C9.57473 7.81335 9.41576 7.7475 9.25 7.7475C9.08424 7.7475 8.92527 7.81335 8.80806 7.93056C8.69085 8.04777 8.625 8.20674 8.625 8.3725V12.1225C8.625 12.2883 8.69085 12.4472 8.80806 12.5644C8.92527 12.6817 9.08424 12.7475 9.25 12.7475C9.41576 12.7475 9.57473 12.6817 9.69194 12.5644C9.80915 12.4472 9.875 12.2883 9.875 12.1225V8.3725Z" fill="white"/>
</svg>
